HIERARCHY
ROOT Hips
{
	OFFSET 0.000000 0.000000 0.000000 
	CHANNELS 6 Xposition Yposition Zposition Yrotation Zrotation Xrotation 
	JOINT Lumbar
	{
		OFFSET 0.000000 0.000000 0.000000 
		CHANNELS 3 Zrotation Xrotation Yrotation
		JOINT Neck
		{
			OFFSET 0.000000 0.445665 0.000000 
			CHANNELS 3 Zrotation Xrotation Yrotation
			End Site
			{
				OFFSET 0.000000 0.227535 0.000000 
			}
		}
		JOINT RightShoulder
		{
			OFFSET 0.019635 0.377685 0.194865 
			CHANNELS 3 Zrotation Xrotation Yrotation
			JOINT RightElbow
			{
				OFFSET 0.000000 -0.243375 0.000000 
				CHANNELS 2 Zrotation Yrotation
				JOINT RightWrist
				{
					OFFSET 0.000000 -0.264825 0.000000 
					CHANNELS 2 Zrotation Xrotation
					End Site
					{
						OFFSET 0.006600 -0.176220 0.000990 
					}
				}
			}
		}
		JOINT LeftShoulder
		{
			OFFSET 0.019635 0.377685 -0.194865 
			CHANNELS 3 Zrotation Xrotation Yrotation
			JOINT LeftElbow
			{
				OFFSET 0.000000 -0.243375 0.000000 
				CHANNELS 2 Zrotation Yrotation
				JOINT LeftWrist
				{
					OFFSET 0.000000 -0.264825 0.000000 
					CHANNELS 2 Zrotation Xrotation
					End Site
					{
						OFFSET 0.006600 -0.176220 -0.000990 
					}
				}
			}
		}
	}
	JOINT RightHip
	{
		OFFSET 0.052140 -0.069960 0.075570 
		CHANNELS 3 Zrotation Xrotation Yrotation
		JOINT RightKnee
		{
			OFFSET 0.000000 -0.402270 0.000000 
			CHANNELS 1 Zrotation
			JOINT RightAnkle
			{
				OFFSET 0.000000 -0.404085 0.000000 
				CHANNELS 3 Zrotation Xrotation Yrotation
				End Site
				{
					OFFSET 0.204105 -0.089430 0.008415 
				}
			}
		}
	}
	JOINT LeftHip
	{
		OFFSET 0.052140 -0.069960 -0.075570 
		CHANNELS 3 Zrotation Xrotation Yrotation
		JOINT LeftKnee
		{
			OFFSET 0.000000 -0.402270 0.000000 
			CHANNELS 1 Zrotation
			JOINT LeftAnkle
			{
				OFFSET 0.000000 -0.404085 0.000000 
				CHANNELS 3 Zrotation Xrotation Yrotation
				End Site
				{
					OFFSET 0.204105 -0.089430 -0.008415 
				}
			}
		}
	}
}
MOTION
Frames: 34
Frame Time: 0.02
-1.4997 0.94512 -0.15165 208.03624 0 -1.16009 -56.06391 5.73241 -39.20232 -73.79681 -43.31504 33.82533 148.16384 -9.49247 64.12754 5.32857 83.85765 -1.0781 -3.9756 143.58006 -6.51013 6.27591 8.43785 -81.08042 -4.43032 4.94297 15.87037 5.51604 4.55336 -27.14938 3.49376 -5.67701 -15.93015 7.39546 0.09017 -9.14257 -1.66839 -5.67167 2.79246 4.01372
-1.49974 0.94518 -0.15176 208.04636 0 -1.18979 -56.06391 5.69698 -39.23656 -73.79681 -43.31504 33.7334 148.72081 -10.48735 64.21878 5.32855 83.79902 -1.51384 -3.68435 143.72307 -6.54525 6.01584 8.47041 -81.16008 -4.44966 4.94067 15.82278 5.5396 4.50233 -27.05333 3.46699 -5.66994 -15.91632 7.39581 0.12473 -9.10299 -1.66336 -5.67075 2.79953 3.95292
-1.49979 0.94527 -0.15186 208.10462 0 -1.23133 -56.06391 5.66322 -39.28705 -73.79681 -43.31504 33.58854 149.25569 -11.59806 64.16501 5.32857 83.8098 -1.96291 -3.34015 143.88688 -6.54997 5.66649 8.51212 -81.26078 -4.47611 4.93864 15.76863 5.55945 4.40281 -26.95495 3.43469 -5.66336 -15.88794 7.35265 0.1757 -9.29151 -1.56419 -5.72822 2.81729 4.04976
-1.49984 0.94535 -0.15197 208.14414 0 -1.26724 -56.06391 5.63098 -39.32918 -73.79681 -43.31504 33.46753 149.79304 -12.65479 63.92992 5.32858 83.77994 -2.38308 -3.0324 144.04074 -6.56856 5.35358 8.55006 -81.34915 -4.49869 4.93731 15.71868 5.58033 4.32407 -26.86056 3.40573 -5.65666 -15.86697 7.33089 0.21822 -9.37377 -1.51025 -5.75836 2.82904 4.07056
-1.49988 0.94544 -0.15207 208.17102 0 -1.30505 -56.06391 5.58793 -39.37515 -73.7968 -43.31503 33.34832 150.36646 -13.72591 64.72149 5.32858 83.79033 -2.90063 -2.66948 144.19865 -6.5885 5.05302 8.58722 -81.4503 -4.52401 4.93271 15.66303 5.60462 4.25045 -26.75239 3.37261 -5.6492 -15.84306 7.30326 0.26547 -9.45778 -1.44735 -5.79066 2.84491 4.1008
-1.49994 0.94551 -0.15217 208.23495 0 -1.3415 -56.06391 5.56772 -39.4172 -73.79681 -43.31504 33.21222 150.85772 -14.78946 63.36131 5.32859 83.73295 -3.21964 -2.4097 144.35191 -6.5972 4.70864 8.62772 -81.52923 -4.54537 4.93488 15.61777 5.62087 4.15511 -26.67258 3.34691 -5.64354 -15.82167 7.27705 0.30672 -9.59562 -1.38017 -5.83281 2.85515 4.1525
-1.50005 0.94554 -0.15226 208.39503 0 -1.37007 -56.06392 5.61663 -39.44353 -73.79684 -43.31514 33.04358 151.12885 -15.82372 55.92277 5.32858 83.46814 -2.96939 -2.45064 144.49219 -6.58853 4.24975 8.67689 -81.54375 -4.55314 4.95588 15.60434 5.61344 4.00677 -26.67555 3.34509 -5.64279 -15.81048 7.26662 0.32543 -9.8284 -1.32485 -5.8875 2.84562 4.22233
-1.50016 0.94556 -0.15234 208.58952 0 -1.39697 -56.06392 5.68741 -39.46583 -73.79687 -43.31527 32.85857 151.31647 -16.8405 46.36247 5.32856 83.13316 -2.52225 -2.59659 144.62588 -6.56751 3.75239 8.7287 -81.53471 -4.55693 4.98361 15.60136 5.5984 3.83919 -26.7065 3.35058 -5.64381 -15.80231 7.25884 0.33782 -10.10781 -1.26826 -5.95025 2.83039 4.30969
-1.50028 0.94558 -0.15242 208.76473 0 -1.42526 -56.06392 5.74435 -39.49029 -73.7969 -43.31537 32.68132 151.5419 -17.85272 37.87822 5.32855 82.83201 -2.17601 -2.69364 144.75925 -6.54896 3.28434 8.77808 -81.53486 -4.56302 5.00807 15.59277 5.58821 3.68344 -26.72253 3.35158 -5.6441 -15.79293 7.24888 0.35423 -10.36659 -1.2115 -6.00982 2.81898 4.39248
-1.50039 0.9456 -0.1525 208.95757 0 -1.45121 -56.06392 5.81821 -39.51282 -73.79693 -43.3155 32.5045 151.77044 -18.92674 28.89012 5.32854 82.52465 -1.78036 -2.79591 144.90765 -6.54595 2.76672 8.83295 -81.54194 -4.56696 5.03339 15.58783 5.57185 3.51258 -26.74842 3.3576 -5.6443 -15.78243 7.24132 0.36625 -10.63328 -1.15421 -6.06969 2.80296 4.46788
-1.5005 0.94563 -0.15258 209.12052 0 -1.48161 -56.06392 5.86145 -39.53958 -73.79696 -43.31559 32.31905 151.96892 -19.86029 20.48304 5.32852 82.21328 -1.44284 -2.91024 145.02254 -6.50389 2.33996 8.87693 -81.52902 -4.57478 5.05859 15.57754 5.56682 3.36973 -26.75961 3.35458 -5.64482 -15.77508 7.23019 0.38586 -10.88854 -1.09946 -6.12968 2.79477 4.55879
-1.50063 0.94573 -0.15263 209.19843 0 -1.52365 -56.06392 5.82002 -39.56735 -73.79696 -43.31561 32.15262 152.13932 -20.46 13.91815 5.32852 81.90243 -1.2945 -3.05601 145.0494 -6.39224 2.2112 8.88982 -81.46366 -4.5903 5.0811 15.55287 5.59271 3.30505 -26.73084 3.32837 -5.64833 -15.77657 7.20664 0.42648 -11.12719 -1.04795 -6.19137 2.81194 4.70556
-1.50077 0.94584 -0.15267 209.24375 0 -1.57034 -56.06392 5.74622 -39.6017 -73.79696 -43.3156 31.97099 152.27617 -20.90844 8.06795 5.32853 81.59087 -1.21447 -3.20627 145.04215 -6.23519 2.16812 8.8917 -81.37942 -4.61055 5.1034 15.52201 5.63066 3.27014 -26.68504 3.29221 -5.65167 -15.78102 7.17997 0.47514 -11.34704 -1.00026 -6.25201 2.83673 4.86357
-1.5009 0.94595 -0.15271 209.29981 0 -1.61556 -56.06392 5.68364 -39.64045 -73.79696 -43.3156 31.77125 152.40559 -21.39369 2.07135 5.32853 81.28268 -1.11658 -3.33894 145.04848 -6.07607 2.06221 8.89877 -81.30565 -4.63126 5.12618 15.49203 5.66459 3.22443 -26.64197 3.25825 -5.65336 -15.78361 7.15623 0.52105 -11.55662 -0.95401 -6.31066 2.8564 5.00398
-1.50105 0.94605 -0.15275 209.37414 0 -1.65813 -56.06392 5.63592 -39.64743 -73.79696 -43.31561 31.67695 152.62705 -22.01577 -4.76683 5.32853 80.95838 -0.95846 -3.54024 145.06258 -6.01272 2.05786 8.90507 -81.22313 -4.64094 5.14742 15.47034 5.69221 3.1667 -26.62055 3.23421 -5.66224 -15.78854 7.12621 0.56303 -11.84593 -0.89434 -6.38001 2.88277 5.19684
-1.50116 0.94618 -0.15281 209.4024 0 -1.70721 -56.06392 5.55009 -39.72277 -73.79696 -43.31559 31.35911 152.65089 -22.31394 -9.63683 5.32853 80.66941 -0.94173 -3.5991 145.05262 -5.73882 1.86022 8.91045 -81.15462 -4.6746 5.17193 15.43009 5.73576 3.14106 -26.55026 3.1872 -5.65629 -15.78919 7.10842 0.61506 -11.96591 -0.86343 -6.42674 2.89719 5.28416
-1.5012 0.94642 -0.15296 209.30968 0 -1.77412 -56.06392 5.36001 -39.98135 -73.79693 -43.3155 30.43065 152.12916 -21.77941 -9.39462 5.32854 80.46939 -1.32397 -3.25657 144.98387 -4.89671 1.12949 8.91508 -81.12992 -4.77543 5.20373 15.33751 5.82194 3.19919 -26.34352 3.07783 -5.60759 -15.77795 7.1262 0.69384 -11.60597 -0.9126 -6.41064 2.87565 5.06524
-1.50121 0.94669 -0.15314 209.17191 0 -1.84724 -56.06392 5.13399 -40.30985 -73.79689 -43.31534 29.27629 151.41163 -20.91814 -7.16331 5.32857 80.30685 -1.84228 -2.7716 144.89263 -3.84271 0.19697 8.91958 -81.11998 -4.90023 5.23913 15.22692 5.92343 3.28823 -26.08916 2.94593 -5.54432 -15.76216 7.15627 0.78226 -11.07879 -0.99044 -6.37175 2.84202 4.74153
-1.50123 0.94694 -0.1533 209.05571 0 -1.91688 -56.06392 4.92876 -40.60816 -73.79687 -43.31529 28.22478 150.78943 -20.19215 -5.72831 5.32855 80.13337 -2.28287 -2.35553 144.81171 -2.88604 -0.65657 8.92437 -81.10312 -5.01223 5.27403 15.12621 6.01695 3.36167 -25.86014 2.82516 -5.4889 -15.74803 7.17992 0.86571 -10.63949 -1.05393 -6.34378 2.8147 4.47404
-1.50124 0.94721 -0.15347 208.93365 0 -1.98947 -56.06392 4.70318 -40.8975 -73.79683 -43.31509 27.17604 150.13918 -19.52254 -4.70251 5.32858 79.93443 -2.79329 -1.92094 144.72765 -1.9286 -1.45154 8.92671 -81.08659 -5.13094 5.30415 15.01806 6.11532 3.44277 -25.61474 2.70017 -5.42824 -15.73577 7.20669 0.9521 -10.15098 -1.12254 -6.31389 2.78431 4.17206
-1.50127 0.94746 -0.15363 208.81367 0 -2.0573 -56.06391 4.51239 -41.22515 -73.79679 -43.31497 26.06296 149.50137 -18.6525 -2.38831 5.32867 79.79701 -3.18906 -1.49248 144.64716 -0.91653 -2.41993 8.93567 -81.07302 -5.2432 5.34506 14.92133 6.20688 3.51477 -25.3926 2.57887 -5.37512 -15.71848 7.23032 1.03433 -9.72356 -1.18799 -6.28198 2.7572 3.91512
-1.50133 0.94769 -0.15379 208.70895 0 -2.11084 -56.06392 4.42197 -41.61306 -73.79685 -43.31536 24.87266 148.94592 -17.37434 3.23996 5.32841 79.82505 -3.24091 -1.10276 144.56557 0.13783 -3.79619 8.95096 -81.0657 -5.31537 5.41503 14.85946 6.27726 3.55526 -25.2442 2.47207 -5.34571 -15.68869 7.23878 1.10437 -9.52244 -1.23117 -6.25536 2.74345 3.82385
-1.50141 0.9479 -0.15393 208.60809 0 -2.15927 -56.06392 4.36867 -42.04107 -73.79682 -43.3147 23.61812 148.4103 -15.89569 10.05317 5.32888 79.91343 -3.1716 -0.72638 144.49143 1.24944 -5.34334 8.97524 -81.06107 -5.38321 5.49568 14.80991 6.33995 3.58542 -25.12124 2.36998 -5.32449 -15.65396 7.24425 1.16951 -9.38572 -1.27127 -6.22657 2.73318 3.77899
-1.50148 0.94812 -0.15408 208.50696 0 -2.2098 -56.06392 4.30162 -42.47096 -73.79687 -43.31569 22.36205 147.86523 -14.46493 16.15387 5.32859 79.9703 -3.15306 -0.35256 144.42512 2.37283 -6.82829 9.00324 -81.05361 -5.46384 5.57138 14.75544 6.40518 3.6191 -24.9882 2.2666 -5.30003 -15.62127 7.2535 1.23578 -9.20843 -1.31717 -6.1952 2.72033 3.702
-1.50156 0.94834 -0.15426 208.399 0 -2.26156 -56.06392 4.22063 -42.82374 -73.79704 -43.31614 21.22334 147.31354 -13.19942 23.03558 5.32769 80.04325 -3.15591 0.06208 144.31143 3.34732 -8.25957 8.99811 -81.05161 -5.49987 5.64775 14.6975 6.47491 3.65783 -24.84757 2.15897 -5.2732 -15.58918 7.25328 1.30709 -9.07229 -1.34593 -6.17778 2.71107 3.66611
-1.50161 0.94855 -0.15435 208.30547 0 -2.30938 -56.06392 4.17734 -43.33907 -73.79657 -43.31196 19.83347 146.78491 -11.55361 28.57536 5.33128 80.09968 -3.08556 0.38735 144.29753 4.63868 -9.83482 9.06435 -81.041 -5.62716 5.72504 14.64989 6.53335 3.68443 -24.72899 2.06141 -5.25322 -15.55489 7.27152 1.36655 -8.86886 -1.40874 -6.13145 2.69559 3.55932
-1.50154 0.9487 -0.15422 208.26203 0 -2.34817 -56.06392 4.23477 -44.32963 -73.79743 -43.3224 17.71341 146.2976 -8.848 29.84942 5.32474 80.06879 -2.82389 0.46254 144.56536 6.82556 -11.81413 9.32347 -80.98555 -6.00974 5.80369 14.62853 6.56147 3.66948 -24.6687 1.99239 -5.2521 -15.5143 7.34487 1.39496 -8.4568 -1.57113 -6.00263 2.65995 3.22647
-1.50143 0.94883 -0.154 208.23096 0 -2.38306 -56.06392 4.32807 -45.46102 -73.7969 -43.30948 15.35002 145.83618 -5.78054 29.76754 5.32944 80.02409 -2.49432 0.44875 144.93162 9.32186 -13.92199 9.65439 -80.9248 -6.48369 5.88255 14.61708 6.57865 3.64459 -24.62918 1.93305 -5.2573 -15.47191 7.43626 1.41151 -7.97709 -1.76699 -5.84543 2.61847 2.82502
-1.50133 0.94897 -0.15381 208.1873 0 -2.41923 -56.06392 4.40131 -46.52189 -73.79524 -43.30683 13.13822 145.37654 -2.91722 30.47976 5.3404 80.00309 -2.20907 0.47928 145.24813 11.65272 -15.93883 9.9539 -80.88012 -6.91428 5.96041 14.60071 6.60139 3.63088 -24.5781 1.86824 -5.2584 -15.43139 7.51702 1.43311 -7.5337 -1.94405 -5.70349 2.58109 2.46755
-1.50127 0.94911 -0.15366 208.17382 0 -2.45713 -56.06392 4.49139 -47.67016 -73.8018 -43.36175 10.76611 144.86399 0.12633 30.50377 5.29286 79.9104 -1.86796 0.49307 145.58757 14.0904 -18.1011 10.24903 -80.77895 -7.35277 6.04267 14.58657 6.62125 3.58829 -24.53717 1.80834 -5.26496 -15.3865 7.60769 1.4559 -7.06845 -2.13564 -5.55174 2.53749 2.05639
-1.50112 0.94925 -0.15341 208.09957 0 -2.49079 -56.06392 4.55481 -48.59602 -73.78991 -43.2208 8.65191 144.46288 2.87094 31.59825 5.38303 79.96327 -1.62223 0.5207 145.90066 16.37846 -19.98658 10.56964 -80.79279 -7.7962 6.1154 14.5699 6.64479 3.60416 -24.4793 1.74017 -5.26154 -15.35003 7.68235 1.47355 -6.63242 -2.30564 -5.4134 2.50571 1.74167
-1.50075 0.94939 -0.15288 207.86134 0 -2.51164 -56.06392 4.53198 -49.5248 -73.73662 -43.1699 7.47864 144.40515 4.75854 36.18785 5.73864 80.41759 -1.71167 0.60855 146.13629 18.17745 -21.0967 10.94799 -81.13778 -8.23479 6.1639 14.54453 6.67945 3.77929 -24.37304 1.6493 -5.2291 -15.34027 7.70581 1.47892 -6.28815 -2.40197 -5.32173 2.50531 1.69655
-1.50028 0.94953 -0.15225 207.56031 0 -2.52872 -56.06392 4.48126 -50.12061 -73.6635 -42.82198 6.54568 144.45194 6.32123 41.85606 6.25378 81.01857 -1.88974 0.71329 146.34069 19.81626 -21.92139 11.34866 -81.59682 -8.67497 6.20222 14.51611 6.71849 4.01447 -24.24834 1.54936 -5.18637 -15.33856 7.71305 1.4797 -5.976 -2.47654 -5.24402 2.51741 1.75269
-1.49985 0.94968 -0.15166 207.28346 0 -2.54896 -56.06392 4.44609 -50.41901 -73.59289 -42.17967 5.38752 144.42171 7.99405 46.8889 6.76885 81.55551 -1.9916 0.81036 146.54369 21.52653 -22.85963 11.7357 -81.99504 -9.11133 6.24394 14.48849 6.75678 4.22531 -24.12959 1.45186 -5.14823 -15.33119 7.72936 1.48328 -5.65285 -2.56493 -5.15821 2.52563 1.7717
